<?xml version="1.0" standalone="no"?>
<!DOCTYPE svg PUBLIC "-//W3C//DTD SVG 20010904//EN"
 "http://www.w3.org/TR/2001/REC-SVG-20010904/DTD/svg10.dtd">
<svg version="1.0" xmlns="http://www.w3.org/2000/svg"
 width="236.000000pt" height="225.000000pt" viewBox="0 0 236.000000 225.000000"
 preserveAspectRatio="xMidYMid meet">

<g transform="translate(0.000000,225.000000) scale(0.100000,-0.100000)"
fill="#000000" stroke="none">
<path d="M1011 1974 c-61 -19 -71 -30 -71 -80 0 -47 -16 -66 -35 -41 -9 12
-14 14 -23 5 -7 -7 -12 -17 -12 -23 0 -7 -10 -20 -21 -31 -31 -27 -49 -75 -38
-96 9 -16 4 -18 -43 -19 -70 -2 -74 -1 -136 17 -30 9 -56 23 -59 30 -3 8 -13
14 -23 14 -10 0 -20 4 -22 9 -1 5 -33 29 -71 54 -91 61 -118 86 -146 130 -32
52 -66 51 -115 -3 -42 -47 -43 -54 -13 -83 13 -12 39 -51 57 -86 43 -81 149
-194 258 -276 l86 -64 -3 -49 c-1 -27 7 -87 19 -133 12 -46 26 -101 31 -121 5
-21 13 -55 19 -75 9 -37 22 -160 25 -233 2 -44 17 -80 44 -104 11 -11 21 -24
21 -31 0 -6 -33 -30 -73 -52 -109 -62 -139 -103 -139 -184 0 -135 136 -201
279 -135 58 27 63 24 63 -41 0 -53 25 -94 79 -131 l49 -34 58 17 c33 10 65 19
72 21 32 9 53 141 28 178 -18 28 -23 141 -6 151 6 4 19 24 30 46 22 42 49 50
85 25 11 -7 32 -16 47 -20 16 -3 49 -21 74 -39 43 -30 52 -32 145 -35 l100 -4
43 44 43 43 8 145 c5 80 7 160 7 178 -1 18 2 31 6 28 5 -3 26 1 47 8 42 15 75
48 75 76 0 9 12 23 28 30 l27 14 -27 4 c-31 4 -37 17 -13 26 8 3 20 17 25 31
5 14 14 25 20 25 17 0 23 -30 12 -56 -11 -22 -5 -20 76 23 271 145 308 194
220 290 -64 68 -111 95 -182 100 -93 8 -132 -8 -263 -105 -159 -119 -242 -176
-279 -195 -29 -15 -35 -15 -63 -1 -17 9 -40 33 -51 54 -10 20 -28 40 -40 43
-11 3 -20 13 -20 24 0 11 -11 30 -25 43 -31 29 -45 77 -38 129 7 53 -14 86
-63 98 -36 8 -36 9 -20 26 11 11 16 26 12 40 -3 12 -1 28 3 36 5 7 6 22 4 32
-4 16 -12 18 -43 13 -35 -6 -39 -4 -60 31 -28 45 -19 56 47 62 37 4 52 1 62
-11 7 -9 19 -16 26 -16 8 0 16 -6 18 -12 4 -10 6 -10 6 -1 1 6 -3 15 -9 18 -5
3 -10 16 -10 28 -2 70 -72 171 -129 187 -43 12 -44 12 -100 -6z m975 -609
c-11 -8 -22 -12 -25 -9 -6 6 19 24 34 24 6 -1 1 -7 -9 -15z m69 -5 c-10 -11
-25 -20 -34 -20 -12 1 -10 5 8 20 30 26 49 26 26 0z m53 -31 c-18 -22 -34 -35
-36 -29 -4 12 46 70 60 70 5 0 -6 -18 -24 -41z m79 4 c-8 -10 -25 -40 -37 -68
-40 -94 -88 -118 -144 -74 -21 17 -29 19 -41 9 -32 -27 -117 41 -114 90 0 13
1 13 6 0 10 -26 46 -60 65 -60 9 0 25 11 34 25 29 44 49 49 81 19 15 -15 20
-21 11 -14 -21 15 -48 7 -48 -14 0 -9 11 -23 24 -31 36 -24 70 -5 100 54 14
27 36 57 48 65 29 21 35 20 15 -1z m-203 1 c13 -5 9 -13 -21 -40 -40 -37 -52
-41 -71 -22 -17 17 -15 45 6 57 19 12 62 14 86 5z m-118 -113 c34 -36 48 -45
80 -47 22 -1 55 -9 74 -17 19 -8 42 -17 50 -21 19 -7 -50 0 -110 12 -25 5 -72
23 -104 40 -65 35 -93 39 -122 17 -18 -14 -18 -16 14 -46 42 -38 38 -45 -8
-17 -19 12 -44 22 -55 22 -29 1 -22 45 12 75 22 19 33 22 65 17 36 -6 38 -5
39 21 0 26 1 27 12 8 7 -10 31 -39 53 -64z m-229 -33 c-3 -8 -6 -5 -6 6 -1 11
2 17 5 13 3 -3 4 -12 1 -19z m264 -38 c77 -38 81 -40 41 -34 -37 5 -46 3 -58
-15 -21 -30 -46 -28 -38 3 7 28 -35 66 -74 66 -21 0 -23 2 -11 16 16 19 34 15
140 -36z m-452 -79 c7 -5 12 -14 9 -21 -2 -7 -10 -4 -22 9 -19 21 -12 28 13
12z m-124 -37 c-15 -11 -20 -11 -27 -1 -13 20 -9 24 19 19 25 -5 25 -6 8 -18z
m110 -14 c26 -28 15 -31 -12 -3 -12 13 -19 23 -14 23 4 0 16 -9 26 -20z m-25
-15 c17 -21 6 -43 -27 -51 -15 -3 -39 -13 -51 -21 -24 -15 -24 -14 -17 19 13
61 65 90 95 53z m-110 -29 c0 -3 -4 -8 -10 -11 -5 -3 -10 -1 -10 4 0 6 5 11
10 11 6 0 10 -2 10 -4z m149 -53 c-1 -16 1 -40 6 -56 9 -33 -16 -77 -45 -77
-25 0 -36 18 -15 26 25 10 37 41 25 65 -14 25 -56 23 -54 -4 2 -14 -1 -15 -13
-6 -29 25 -11 52 42 65 28 6 51 12 53 13 2 0 2 -11 1 -26z m-708 -402 l-21
-21 0 28 c0 15 8 39 18 52 l17 25 3 -32 c2 -22 -3 -38 -17 -52z m-41 34 c-7
-8 -17 -15 -22 -15 -6 0 -5 7 2 15 7 8 17 15 22 15 6 0 5 -7 -2 -15z m-5 -54
c-6 -5 -21 -12 -35 -16 -22 -7 -23 -6 -11 9 7 9 23 16 34 16 13 0 17 -4 12 -9z
m95 0 c0 -6 -5 -13 -11 -17 -6 -3 -8 -15 -6 -26 4 -16 3 -17 -9 -7 -22 18 -18
59 6 59 11 0 20 -4 20 -9z m-115 -66 c-63 -18 -64 -18 -41 0 11 8 36 15 55 14
35 0 34 -1 -14 -14z m165 -40 c0 -19 -26 -24 -132 -27 -113 -4 -100 18 15 25
44 3 84 10 90 16 12 12 27 5 27 -14z"/>
</g>
</svg>
