<?xml version="1.0" standalone="no"?>
<!DOCTYPE svg PUBLIC "-//W3C//DTD SVG 20010904//EN"
 "http://www.w3.org/TR/2001/REC-SVG-20010904/DTD/svg10.dtd">
<svg version="1.0" xmlns="http://www.w3.org/2000/svg"
 width="339.000000pt" height="225.000000pt" viewBox="0 0 339.000000 225.000000"
 preserveAspectRatio="xMidYMid meet">

<g transform="translate(0.000000,225.000000) scale(0.100000,-0.100000)"
fill="#000000" stroke="none">
<path d="M1625 2139 c-19 -17 -35 -37 -35 -45 0 -8 -16 -31 -35 -52 -19 -20
-41 -45 -48 -55 -12 -18 -15 -18 -72 -2 -62 18 -196 15 -203 -5 -2 -6 -8 -10
-13 -10 -6 0 -7 5 -4 10 3 6 -1 10 -10 10 -8 0 -18 7 -21 15 -7 18 -181 75
-231 75 -21 0 -53 4 -72 10 -26 7 -39 6 -55 -5 -39 -28 -79 -19 -114 24 -18
22 -41 43 -53 46 -20 7 -99 -21 -99 -34 0 -9 114 -81 128 -81 6 0 14 -9 17
-21 6 -19 8 -19 24 -5 15 14 20 14 45 1 15 -8 32 -12 37 -9 5 3 9 -1 9 -9 0
-7 13 -26 29 -41 31 -29 48 -22 36 15 -5 15 -3 20 6 17 7 -2 16 -15 20 -29 4
-13 8 -17 8 -9 1 8 5 21 10 29 8 12 12 11 27 -3 10 -11 27 -16 41 -13 17 3 23
0 23 -14 0 -11 5 -19 10 -19 6 0 56 -43 113 -96 56 -53 112 -105 125 -116 l22
-20 0 30 c0 19 -19 58 -51 108 -30 45 -42 70 -29 59 13 -11 31 -33 41 -50 11
-16 19 -24 19 -17 0 6 12 12 28 12 20 0 23 3 12 9 -8 6 -19 7 -25 4 -5 -3 -4
0 3 8 10 11 15 10 30 -4 16 -17 16 -18 -6 -23 -25 -7 -26 -12 -11 -34 9 -13
10 -13 6 2 -7 19 31 32 49 17 7 -6 23 -9 36 -7 23 3 25 -3 13 -32 -4 -11 1
-16 15 -16 13 0 19 5 15 13 -3 10 0 11 14 4 24 -13 33 -58 14 -65 -22 -9 -23
-8 -23 14 0 20 -11 26 -24 13 -4 -5 -19 -8 -32 -8 -23 -1 -25 3 -28 47 -2 29
-15 31 -26 3 -6 -15 -7 -44 -4 -64 8 -44 54 -112 72 -106 7 3 20 -10 29 -30 9
-19 20 -32 24 -29 4 2 10 0 14 -6 3 -5 0 -10 -9 -10 -22 0 -46 11 -46 21 0 5
-18 28 -40 50 -41 42 -49 44 -29 6 12 -21 12 -21 -16 -3 l-28 18 6 -31 c8 -38
41 -84 83 -116 24 -19 31 -30 27 -46 -4 -14 0 -25 11 -31 25 -14 19 -28 -20
-44 -26 -11 -39 -12 -45 -5 -5 6 -7 9 -3 7 11 -8 50 40 45 57 -3 15 -6 16 -12
5 -6 -9 -9 -6 -9 10 0 15 4 21 11 16 7 -4 10 -1 7 7 -3 8 -11 13 -17 11 -6 -1
-11 3 -11 10 0 7 -3 8 -9 2 -5 -5 -11 -43 -13 -84 -3 -74 -3 -75 22 -78 14 -2
30 -8 35 -13 7 -7 3 -8 -10 -3 -18 7 -18 6 -6 -9 14 -18 47 -24 36 -7 -3 6 -4
10 -1 10 3 0 17 -24 31 -52 14 -29 19 -44 10 -34 -8 11 -15 15 -15 10 0 -12
42 -54 54 -54 5 0 2 8 -5 17 -11 13 -8 13 13 -2 15 -11 30 -26 33 -34 4 -10
-2 -8 -16 5 l-22 19 18 -32 c19 -32 19 -33 0 -48 -32 -24 -48 -31 -80 -30 -27
0 -30 3 -27 27 2 15 0 33 -5 40 -5 8 -10 -4 -13 -32 -5 -41 -2 -47 23 -62 15
-10 27 -25 27 -34 0 -11 6 -14 21 -9 14 5 25 2 30 -6 8 -12 11 -11 19 1 5 8
10 10 10 5 0 -6 14 -16 32 -23 26 -10 35 -9 49 4 9 8 34 20 55 25 61 17 181
87 205 120 19 27 23 29 38 15 12 -11 21 -12 36 -5 18 10 19 9 3 -4 -10 -8 -18
-20 -18 -28 0 -11 2 -11 10 1 7 11 8 6 4 -16 -5 -25 -2 -32 20 -42 16 -7 26
-8 26 -2 0 6 4 10 10 10 5 0 7 -8 3 -17 -6 -16 -4 -16 15 1 17 15 22 16 22 5
0 -8 -5 -20 -11 -26 -15 -15 -3 -63 16 -63 17 0 20 16 5 25 -13 8 -3 25 15 25
8 0 12 -6 9 -14 -3 -8 -1 -17 5 -21 6 -3 11 -16 11 -29 0 -12 5 -27 12 -34 9
-9 8 -15 -8 -26 -10 -8 -19 -18 -19 -23 0 -16 -42 -62 -50 -55 -5 4 -5 1 -1
-6 4 -7 2 -12 -7 -12 -8 0 -24 -9 -37 -20 -13 -11 -27 -20 -31 -20 -5 0 -18
-10 -30 -22 -12 -13 -18 -17 -14 -9 4 8 -12 2 -36 -13 -24 -14 -43 -30 -42
-35 1 -5 -5 -7 -15 -5 -24 5 -155 -93 -148 -112 3 -9 -1 -14 -12 -14 -19 1
-55 69 -72 139 -11 40 -12 42 -26 25 -13 -17 -13 -16 -2 9 7 17 8 31 2 35 -15
11 -40 47 -27 39 6 -4 -4 18 -23 50 -19 31 -34 62 -34 67 0 6 -12 -9 -26 -32
l-26 -44 31 -28 c17 -16 31 -33 31 -38 0 -20 66 -88 80 -84 9 3 11 1 7 -4 -5
-5 -40 -9 -78 -10 -44 0 -74 -5 -82 -14 -9 -10 -9 -11 1 -5 11 6 11 3 0 -14
-16 -26 -23 -10 -12 27 4 15 7 30 6 35 -1 4 5 7 13 7 8 0 19 9 25 19 14 28 13
36 -5 21 -8 -7 -24 -10 -34 -7 -11 3 -23 0 -26 -7 -3 -7 -7 -6 -11 3 -7 15
-35 43 -72 73 -17 14 -20 24 -15 49 5 27 4 31 -10 26 -16 -6 -16 -4 0 21 l17
27 -27 -24 c-14 -13 -24 -29 -20 -35 3 -6 2 -8 -2 -3 -9 7 -45 -20 -45 -35 0
-4 10 -6 23 -3 18 5 26 -2 45 -36 15 -26 29 -39 38 -35 9 3 16 -3 20 -19 4
-16 11 -22 21 -18 13 5 13 2 -2 -20 -9 -15 -13 -27 -7 -27 6 0 13 4 16 9 3 5
15 11 26 14 16 4 19 1 15 -16 -3 -12 -7 -35 -9 -50 -2 -16 -9 -33 -17 -38 -9
-6 -10 -9 -2 -9 6 0 14 4 17 9 3 5 15 11 27 14 20 5 20 5 2 -15 -10 -11 -17
-22 -16 -24 5 -9 -10 -64 -17 -64 -5 0 -5 -12 -1 -28 5 -17 15 -28 29 -30 12
-2 22 -8 22 -14 0 -6 7 -19 15 -28 14 -15 5 -24 -100 -104 -63 -48 -118 -92
-121 -98 -4 -6 28 15 72 48 191 141 522 380 674 486 91 63 197 136 235 163
278 193 352 250 338 258 -5 3 -26 -10 -47 -29 -39 -36 -51 -40 -61 -24 -4 6 1
7 11 3 10 -3 15 -2 12 3 -7 10 11 27 32 32 7 2 19 11 26 20 10 13 14 14 27 3
13 -10 20 -10 41 6 14 10 26 24 26 31 0 7 4 11 9 8 5 -3 19 3 32 13 21 17 22
21 9 37 -10 12 -11 15 -2 10 7 -4 19 -3 27 4 7 6 20 10 28 8 22 -4 92 55 110
94 22 48 29 81 18 97 -14 22 -47 -4 -114 -91 -40 -53 -55 -81 -51 -93 6 -14 3
-16 -14 -11 -25 8 -37 -8 -17 -24 20 -16 10 -30 -21 -30 -14 0 -22 4 -19 10
11 18 -9 10 -40 -16 -16 -13 -23 -22 -14 -19 10 4 19 0 23 -10 4 -11 2 -14 -7
-8 -23 14 -44 12 -65 -7 -12 -11 -25 -20 -30 -20 -5 0 -19 -12 -33 -26 -27
-29 -105 -68 -122 -60 -7 2 -4 5 6 5 10 1 15 6 12 11 -4 6 -15 8 -26 5 -24 -8
-25 3 -1 21 16 13 16 13 0 14 -10 0 -18 4 -18 10 0 5 -15 12 -34 15 -22 5 -37
15 -45 31 -6 14 -19 24 -32 24 -17 0 -20 -4 -15 -24 8 -31 -27 -76 -60 -76
-15 0 -24 6 -24 15 0 8 -8 15 -18 15 -21 0 -49 28 -80 81 -12 20 -32 39 -44
42 -16 4 -18 3 -9 -6 17 -17 13 -31 -4 -17 -23 19 -18 43 20 85 20 21 34 39
33 41 -2 1 -25 -17 -52 -41 -33 -29 -44 -44 -35 -48 8 -3 -1 -6 -19 -6 l-34
-1 31 26 c17 14 31 31 31 38 0 16 -42 56 -58 56 -7 0 -12 15 -12 35 0 41 -17
47 -23 8 -3 -16 -4 -6 -4 20 1 44 -2 51 -33 75 -38 30 -80 43 -45 14 12 -9 24
-25 28 -34 12 -32 -15 -19 -51 23 l-35 41 -23 -49 c-13 -26 -24 -53 -24 -59 0
-7 -7 -15 -16 -18 -22 -9 -24 -8 -18 9 4 8 10 12 15 9 5 -3 6 2 3 11 -4 9 -13
14 -21 11 -16 -7 -16 -7 44 83 43 64 100 110 139 111 11 0 43 -11 70 -25 27
-14 56 -25 64 -25 8 0 27 -13 43 -29 21 -22 51 -34 145 -57 124 -30 171 -55
171 -91 1 -31 40 -31 69 0 35 37 30 93 -10 132 -18 18 -41 44 -51 58 -12 18
-27 27 -45 27 -36 0 -67 23 -98 71 -13 22 -28 37 -33 35 -10 -6 -45 25 -68 60
-23 36 -87 65 -154 71 -57 6 -58 6 -36 23 12 10 20 21 17 24 -3 3 -41 19 -85
36 -45 17 -65 28 -45 25 19 -4 49 -9 67 -12 l32 -5 -4 61 c-6 74 -16 96 -55
116 -46 24 -85 19 -125 -16z m-772 -124 c-3 -9 -8 -14 -10 -11 -3 3 -2 9 2 15
9 16 15 13 8 -4z m872 -174 c-3 -6 -11 -8 -17 -5 -7 4 -8 2 -4 -4 4 -6 -5 -19
-19 -28 -24 -16 -27 -16 -45 1 -21 19 -27 55 -10 55 5 0 7 -6 4 -14 -3 -9 4
-19 17 -26 19 -11 21 -10 16 3 -4 11 2 17 24 22 18 4 27 11 23 18 -5 9 -4 9 6
0 7 -6 9 -16 5 -22z m-209 -113 c29 -31 29 -31 2 -12 -15 10 -29 25 -32 32 -8
18 -2 15 30 -20z m-5 -25 c13 -16 12 -17 -3 -4 -17 13 -22 21 -14 21 2 0 10
-8 17 -17z m-140 -10 c13 -16 12 -17 -3 -4 -10 7 -18 15 -18 17 0 8 8 3 21
-13z m28 -39 c-5 -6 -5 -14 -1 -19 4 -4 1 -6 -6 -4 -15 5 -15 7 -6 46 7 24 8
25 14 8 4 -11 4 -25 -1 -31z m144 19 c-7 -2 -9 -12 -6 -21 4 -14 3 -15 -5 -2
-11 15 5 47 17 34 3 -4 1 -9 -6 -11z m-34 -78 l0 -20 -9 20 c-5 11 -9 27 -9
35 -1 13 0 13 9 0 5 -8 9 -24 9 -35z m-48 18 c13 -15 12 -15 -8 -4 -24 12 -29
21 -14 21 5 0 15 -7 22 -17z m88 -27 c-2 -25 -6 -43 -10 -40 -4 2 -9 -2 -12
-8 -3 -7 -4 -3 -4 9 1 12 5 19 9 17 4 -3 8 11 8 30 0 20 2 36 5 36 3 0 5 -20
4 -44z m-175 -11 c11 -8 15 -15 10 -15 -6 0 -19 7 -30 15 -10 8 -14 14 -9 14
6 0 19 -6 29 -14z m296 -76 c0 -6 -4 -7 -10 -4 -5 3 -10 11 -10 16 0 6 5 7 10
4 6 -3 10 -11 10 -16z m-5 -27 c-3 -3 -11 0 -18 7 -9 10 -8 11 6 5 10 -3 15
-9 12 -12z m4 -61 c0 -11 -4 -9 -11 7 -6 12 -15 22 -20 22 -4 0 -8 7 -8 17 0
13 4 11 20 -7 11 -13 20 -30 19 -39z m1044 -120 c4 -1 7 -5 7 -10 0 -4 -11 -6
-25 -3 -14 2 -25 8 -25 12 0 5 8 7 18 5 9 -2 20 -4 25 -4z m-449 -216 c-4 -8
-10 -15 -15 -15 -4 0 -6 7 -3 15 4 8 10 15 15 15 4 0 6 -7 3 -15z m139 -16
c-12 -12 -26 -18 -32 -15 -15 10 -4 26 13 20 7 -3 16 3 20 12 4 9 9 14 13 10
4 -4 -3 -16 -14 -27z m-871 -28 c-11 -12 -21 -15 -29 -8 -7 5 -22 7 -33 4 -11
-3 -23 0 -27 5 -4 7 -1 8 7 3 10 -6 12 -4 7 9 -5 13 -3 17 5 13 7 -2 22 -1 33
3 11 4 28 3 37 -1 17 -9 17 -10 0 -28z m598 24 c0 -8 -4 -15 -10 -15 -5 0 -7
7 -4 15 4 8 8 15 10 15 2 0 4 -7 4 -15z m205 -25 c-3 -5 -20 -19 -38 -30 l-32
-22 33 31 c32 30 49 40 37 21z m-195 -52 c0 -5 -14 -8 -31 -8 l-30 0 18 30 17
30 13 -23 c7 -12 12 -25 13 -29z m-10 -32 c0 -3 -4 -8 -10 -11 -5 -3 -10 -1
-10 4 0 6 5 11 10 11 6 0 10 -2 10 -4z m35 -16 c3 -6 -1 -7 -9 -4 -18 7 -21
14 -7 14 6 0 13 -4 16 -10z m-15 -40 c0 -5 -5 -10 -11 -10 -5 0 -7 5 -4 10 3
6 8 10 11 10 2 0 4 -4 4 -10z m-49 -38 c-5 -10 -18 -25 -28 -33 -17 -13 -17
-13 0 7 9 11 17 26 17 32 0 7 5 12 10 12 7 0 7 -6 1 -18z m-597 -214 c-3 -5
-9 -6 -14 -3 -4 3 -10 0 -12 -6 -2 -6 -16 -13 -30 -14 -20 -2 -25 1 -21 12 3
8 12 12 19 9 8 -3 14 -2 14 2 0 5 11 8 24 8 14 0 22 -4 20 -8z m74 -40 c10
-30 10 -31 -3 -14 -8 11 -15 23 -15 28 0 4 -7 4 -17 1 -11 -4 -14 -3 -9 5 13
21 31 13 44 -20z m-36 -42 c3 2 8 -2 11 -10 10 -26 -10 -27 -27 -1 -19 29 -21
47 -2 23 7 -10 15 -15 18 -12z m-102 -10 c-5 -14 -7 -35 -4 -48 3 -13 8 -33
11 -45 9 -39 -13 -25 -30 18 -16 40 -16 43 4 70 25 35 32 37 19 5z m255 4 c-3
-5 -11 -10 -16 -10 -6 0 -7 5 -4 10 3 6 11 10 16 10 6 0 7 -4 4 -10z"/>
<path d="M540 2090 c0 -12 28 -25 36 -17 3 3 -4 10 -15 17 -15 7 -21 7 -21 0z"/>
<path d="M1375 1771 c-3 -5 -1 -12 5 -16 5 -3 10 1 10 9 0 18 -6 21 -15 7z"/>
<path d="M1452 1750 c0 -14 2 -19 5 -12 2 6 2 18 0 25 -3 6 -5 1 -5 -13z"/>
<path d="M1697 1580 c8 -30 21 -34 15 -5 -2 14 -8 25 -12 25 -5 0 -6 -9 -3
-20z"/>
<path d="M1340 1500 c0 -5 5 -10 11 -10 5 0 7 5 4 10 -3 6 -8 10 -11 10 -2 0
-4 -4 -4 -10z"/>
<path d="M1103 1273 c-18 -7 -16 -23 2 -23 8 0 15 7 15 15 0 8 -1 15 -2 14 -2
0 -9 -3 -15 -6z"/>
<path d="M1420 1264 c0 -5 6 -16 13 -23 10 -10 8 -11 -8 -5 -18 7 -19 6 -6
-10 13 -16 15 -16 24 -1 6 12 4 22 -7 33 -9 9 -16 12 -16 6z"/>
<path d="M2680 1245 c-11 -13 -10 -14 4 -9 9 3 16 10 16 15 0 13 -6 11 -20 -6z"/>
<path d="M1192 1190 c0 -14 2 -19 5 -12 2 6 2 18 0 25 -3 6 -5 1 -5 -13z"/>
<path d="M1267 1178 c-4 -14 29 -48 47 -48 6 1 2 8 -10 18 -11 10 -19 23 -16
30 2 6 -1 12 -6 12 -6 0 -12 -6 -15 -12z"/>
<path d="M1328 1148 c-3 -24 -1 -47 3 -52 5 -6 9 13 9 42 0 63 -6 68 -12 10z"/>
<path d="M1372 1160 c0 -19 2 -27 5 -17 2 9 2 25 0 35 -3 9 -5 1 -5 -18z"/>
<path d="M1080 1147 c0 -15 5 -27 10 -27 6 0 10 -7 10 -16 0 -8 5 -12 10 -9
14 9 12 -20 -5 -61 -15 -37 -10 -77 7 -52 7 10 11 10 15 1 2 -7 11 -13 19 -13
18 0 18 -9 -3 -32 -18 -20 -4 -25 15 -6 9 9 12 9 12 -2 0 -11 3 -11 12 -2 19
19 26 14 20 -15 -2 -16 -2 -25 2 -22 24 22 9 106 -17 96 -9 -3 -11 11 -9 50 3
40 1 53 -8 48 -6 -4 -9 -13 -6 -20 3 -8 -2 -11 -15 -8 -20 6 -27 25 -8 21 26
-6 17 20 -21 57 l-40 39 0 -27z"/>
<path d="M2100 1130 c0 -5 5 -10 10 -10 6 0 10 5 10 10 0 6 -4 10 -10 10 -5 0
-10 -4 -10 -10z"/>
<path d="M1360 1060 c0 -17 40 -51 52 -44 11 7 -16 34 -35 34 -4 0 -5 5 -2 10
3 6 1 10 -4 10 -6 0 -11 -4 -11 -10z"/>
<path d="M1320 543 c0 -23 5 -33 15 -33 18 0 18 8 0 40 l-14 25 -1 -32z"/>
<path d="M1139 133 c-13 -16 -12 -17 4 -4 16 13 21 21 13 21 -2 0 -10 -8 -17
-17z"/>
<path d="M922 83 c-12 -2 -20 -9 -17 -14 3 -5 -1 -6 -9 -3 -9 3 -16 2 -16 -3
0 -12 59 -30 83 -25 18 4 24 22 7 22 -5 0 -10 5 -10 11 0 6 8 8 19 4 11 -3 22
-1 26 5 6 10 -37 12 -83 3z m23 -13 c-3 -5 -12 -10 -18 -10 -7 0 -6 4 3 10 19
12 23 12 15 0z"/>
</g>
</svg>
